<svg width="20" height="20" viewBox="0 0 20 20" fill="none" xmlns="http://www.w3.org/2000/svg">
<path d="M18.5 11C19.0523 11 19.5 10.5523 19.5 10C19.5 9.44772 19.0523 9 18.5 9V11ZM1 10L0.292893 9.29289C-0.0976311 9.68342 -0.0976311 10.3166 0.292893 10.7071L1 10ZM10.2071 2.20711C10.5976 1.81658 10.5976 1.18342 10.2071 0.792893C9.81658 0.402369 9.18342 0.402369 8.79289 0.792893L10.2071 2.20711ZM8.79289 19.2071C9.18342 19.5976 9.81658 19.5976 10.2071 19.2071C10.5976 18.8166 10.5976 18.1834 10.2071 17.7929L8.79289 19.2071ZM18.5 9H1V11H18.5V9ZM1.70711 10.7071L10.2071 2.20711L8.79289 0.792893L0.292893 9.29289L1.70711 10.7071ZM0.292893 10.7071L8.79289 19.2071L10.2071 17.7929L1.70711 9.29289L0.292893 10.7071Z" fill="white"/>
</svg>
