<svg width="106" height="30" viewBox="0 0 106 30" fill="none" xmlns="http://www.w3.org/2000/svg">
<path d="M12.535 7.63794C12.4498 6.76524 12.0842 6.08727 11.4381 5.60404C10.792 5.12081 9.91512 4.87919 8.80752 4.87919C8.05493 4.87919 7.41948 4.98738 6.90118 5.20375C6.38288 5.41291 5.98528 5.70501 5.70838 6.08006C5.43858 6.4551 5.30368 6.88064 5.30368 7.35665C5.28948 7.75334 5.37113 8.09953 5.54863 8.39524C5.73323 8.69095 5.98528 8.94699 6.30478 9.16336C6.62428 9.37252 6.99348 9.55644 7.41238 9.71511C7.83128 9.86657 8.27858 9.99639 8.75428 10.1046L10.7139 10.5806C11.6653 10.797 12.5386 11.0855 13.3338 11.4461C14.129 11.8067 14.8177 12.2503 15.3999 12.7768C15.9821 13.3033 16.4329 13.9236 16.7524 14.6376C17.079 15.3516 17.2459 16.1702 17.253 17.0934C17.2459 18.4493 16.9051 19.625 16.2306 20.6203C15.5632 21.6084 14.5976 22.3765 13.3338 22.9246C12.0771 23.4656 10.5612 23.736 8.78623 23.736C7.02543 23.736 5.49183 23.462 4.18544 22.9138C2.88614 22.3657 1.87084 21.5543 1.13955 20.4796C0.415349 19.3978 0.0354999 18.0599 0 16.4659H4.46234C4.51204 17.2088 4.72149 17.8291 5.09068 18.3267C5.46698 18.8172 5.96753 19.1886 6.59233 19.441C7.22423 19.6863 7.93778 19.8089 8.73298 19.8089C9.51397 19.8089 10.192 19.6935 10.7671 19.4627C11.3493 19.2319 11.8002 18.9109 12.1197 18.4998C12.4392 18.0887 12.5989 17.6163 12.5989 17.0826C12.5989 16.5849 12.4534 16.1666 12.1623 15.8276C11.8783 15.4886 11.4594 15.2001 10.9056 14.9621C10.3589 14.7241 9.68792 14.5078 8.89272 14.313L6.51778 13.7072C4.67889 13.2528 3.22694 12.5424 2.16194 11.5759C1.09695 10.6094 0.567998 9.30761 0.575098 7.67039C0.567998 6.32889 0.919447 5.15687 1.62945 4.15435C2.34654 3.15182 3.32989 2.36928 4.57949 1.80671C5.82908 1.24414 7.24908 0.962856 8.83948 0.962856C10.4583 0.962856 11.8712 1.24414 13.0782 1.80671C14.2923 2.36928 15.2366 3.15182 15.9111 4.15435C16.5856 5.15687 16.9335 6.31807 16.9548 7.63794H12.535Z" fill="#80D504"/>
<path d="M20.2696 23.4223V6.8049H24.8064V23.4223H20.2696ZM22.5486 4.66282C21.8741 4.66282 21.2955 4.43563 20.8127 3.98125C20.337 3.51965 20.0992 2.96791 20.0992 2.326C20.0992 1.69131 20.337 1.14677 20.8127 0.692392C21.2955 0.230797 21.8741 0 22.5486 0C23.2231 0 23.7982 0.230797 24.2739 0.692392C24.7567 1.14677 24.9981 1.69131 24.9981 2.326C24.9981 2.96791 24.7567 3.51965 24.2739 3.98125C23.7982 4.43563 23.2231 4.66282 22.5486 4.66282Z" fill="#80D504"/>
<path d="M35.8105 30C34.3408 30 33.0806 29.7944 32.0298 29.3833C30.9861 28.9794 30.1554 28.4277 29.5377 27.7281C28.92 27.0285 28.5188 26.2423 28.3342 25.3696L32.5303 24.7962C32.6581 25.128 32.8605 25.4382 33.1374 25.7267C33.4143 26.0151 33.7799 26.2459 34.2343 26.419C34.6958 26.5994 35.2567 26.6895 35.917 26.6895C36.9039 26.6895 37.7169 26.4443 38.3559 25.9538C39.002 25.4706 39.325 24.6592 39.325 23.5197V20.4796H39.1333C38.9345 20.9412 38.6363 21.3776 38.2387 21.7887C37.8411 22.1998 37.3299 22.5352 36.7051 22.7948C36.0803 23.0545 35.3348 23.1843 34.4686 23.1843C33.2403 23.1843 32.1221 22.8958 31.1139 22.3188C30.1128 21.7346 29.314 20.8439 28.7176 19.6466C28.1283 18.4421 27.8337 16.9203 27.8337 15.0811C27.8337 13.1987 28.1354 11.6264 28.7389 10.3642C29.3424 9.10206 30.1447 8.15723 31.1458 7.52975C32.154 6.90227 33.2581 6.58853 34.458 6.58853C35.3739 6.58853 36.1407 6.74721 36.7584 7.06455C37.3761 7.37468 37.8731 7.76415 38.2494 8.23296C38.6328 8.69455 38.9274 9.14894 39.1333 9.59611H39.3037V6.8049H43.8086V23.5846C43.8086 24.9982 43.4678 26.181 42.7863 27.1331C42.1047 28.0851 41.1604 28.7991 39.9534 29.2752C38.7535 29.7584 37.3725 30 35.8105 30ZM35.9064 19.7223C36.6377 19.7223 37.2554 19.5384 37.7595 19.1706C38.2707 18.7955 38.6612 18.2618 38.931 17.5694C39.2079 16.8698 39.3463 16.0332 39.3463 15.0595C39.3463 14.0858 39.2114 13.242 38.9416 12.528C38.6718 11.8067 38.2813 11.2477 37.7701 10.8511C37.2589 10.4544 36.6377 10.256 35.9064 10.256C35.1609 10.256 34.5325 10.4616 34.0213 10.8727C33.5101 11.2766 33.1232 11.8392 32.8605 12.5604C32.5978 13.2816 32.4664 14.1147 32.4664 15.0595C32.4664 16.0188 32.5978 16.8482 32.8605 17.5478C33.1303 18.2402 33.5172 18.7775 34.0213 19.1598C34.5325 19.5348 35.1609 19.7223 35.9064 19.7223Z" fill="#80D504"/>
<path d="M51.9559 13.8154V23.4223H47.419V6.8049H51.7429V9.73675H51.9346C52.2967 8.77029 52.9037 8.00577 53.7557 7.4432C54.6077 6.87342 55.6408 6.58853 56.8549 6.58853C57.9909 6.58853 58.9813 6.84097 59.8262 7.34584C60.6711 7.8507 61.3278 8.57194 61.7964 9.50956C62.265 10.44 62.4993 11.5507 62.4993 12.8417V23.4223H57.9625V13.6639C57.9696 12.647 57.714 11.8536 57.1957 11.2838C56.6774 10.7068 55.9638 10.4183 55.055 10.4183C54.4444 10.4183 53.9048 10.5518 53.4362 10.8186C52.9747 11.0855 52.6126 11.4749 52.3499 11.987C52.0943 12.4919 51.963 13.1013 51.9559 13.8154Z" fill="#80D504"/>
<path d="M70.7398 23.736C69.6961 23.736 68.766 23.5521 67.9495 23.1843C67.133 22.8092 66.4869 22.2575 66.0112 21.529C65.5426 20.7934 65.3083 19.8774 65.3083 18.7811C65.3083 17.8579 65.4751 17.0826 65.8088 16.4551C66.1425 15.8276 66.5969 15.3228 67.172 14.9405C67.7471 14.5582 68.4003 14.2697 69.1316 14.075C69.87 13.8803 70.6439 13.7432 71.4533 13.6639C72.4047 13.5629 73.1715 13.4692 73.7537 13.3826C74.3359 13.2889 74.7583 13.1518 75.021 12.9715C75.2837 12.7912 75.4151 12.5243 75.4151 12.1709V12.106C75.4151 11.4208 75.2021 10.8907 74.7761 10.5157C74.3572 10.1406 73.7608 9.95312 72.9869 9.95312C72.1704 9.95312 71.5208 10.137 71.038 10.5049C70.5552 10.8655 70.2357 11.3199 70.0795 11.868L65.8834 11.5218C66.0964 10.5121 66.5153 9.63938 67.1401 8.90372C67.7649 8.16084 68.5707 7.59106 69.5576 7.19437C70.5516 6.79048 71.7018 6.58853 73.0082 6.58853C73.917 6.58853 74.7867 6.69672 75.6174 6.91309C76.4552 7.12946 77.1972 7.46484 77.8433 7.91922C78.4965 8.3736 79.0112 8.95781 79.3875 9.67184C79.7638 10.3787 79.952 11.2261 79.952 12.2142V23.4223H75.6494V21.1179H75.5216C75.2589 21.6372 74.9074 22.0952 74.4672 22.4919C74.027 22.8814 73.4981 23.1879 72.8804 23.4115C72.2627 23.6278 71.5492 23.736 70.7398 23.736ZM72.0391 20.5554C72.7065 20.5554 73.2958 20.4219 73.8069 20.1551C74.3181 19.881 74.7193 19.5132 75.0104 19.0516C75.3015 18.59 75.447 18.0671 75.447 17.4829V15.7194C75.305 15.8132 75.1098 15.8997 74.8613 15.9791C74.6199 16.0512 74.3465 16.1197 74.0413 16.1846C73.7359 16.2423 73.4306 16.2964 73.1254 16.3469C72.8201 16.3902 72.5432 16.4299 72.2947 16.4659C71.7622 16.5453 71.2971 16.6715 70.8995 16.8446C70.5019 17.0177 70.1931 17.2521 69.973 17.5478C69.7529 17.8363 69.6428 18.1969 69.6428 18.6296C69.6428 19.2571 69.8665 19.7367 70.3138 20.0685C70.7682 20.3931 71.3433 20.5554 72.0391 20.5554Z" fill="#80D504"/>
<path d="M88.1365 23.736C87.0928 23.736 86.1627 23.5521 85.3462 23.1843C84.5297 22.8092 83.8836 22.2575 83.4079 21.529C82.9393 20.7934 82.705 19.8774 82.705 18.7811C82.705 17.8579 82.8718 17.0826 83.2055 16.4551C83.5392 15.8276 83.9936 15.3228 84.5687 14.9405C85.1438 14.5582 85.797 14.2697 86.5283 14.075C87.2667 13.8803 88.0406 13.7432 88.85 13.6639C89.8014 13.5629 90.5682 13.4692 91.1504 13.3826C91.7326 13.2889 92.1551 13.1518 92.4178 12.9715C92.6805 12.7912 92.8118 12.5243 92.8118 12.1709V12.106C92.8118 11.4208 92.5988 10.8907 92.1728 10.5157C91.7539 10.1406 91.1575 9.95312 90.3836 9.95312C89.5671 9.95312 88.9175 10.137 88.4347 10.5049C87.9519 10.8655 87.6324 11.3199 87.4762 11.868L83.2801 11.5218C83.4931 10.5121 83.912 9.63938 84.5368 8.90372C85.1616 8.16084 85.9674 7.59106 86.9543 7.19437C87.9483 6.79048 89.0985 6.58853 90.4049 6.58853C91.3137 6.58853 92.1835 6.69672 93.0142 6.91309C93.852 7.12946 94.5939 7.46484 95.24 7.91922C95.8932 8.3736 96.408 8.95781 96.7843 9.67184C97.1606 10.3787 97.3487 11.2261 97.3487 12.2142V23.4223H93.0461V21.1179H92.9183C92.6556 21.6372 92.3042 22.0952 91.864 22.4919C91.4238 22.8814 90.8948 23.1879 90.2771 23.4115C89.6594 23.6278 88.9459 23.736 88.1365 23.736ZM89.4358 20.5554C90.1032 20.5554 90.6925 20.4219 91.2037 20.1551C91.7149 19.881 92.116 19.5132 92.4071 19.0516C92.6982 18.59 92.8438 18.0671 92.8438 17.4829V15.7194C92.7018 15.8132 92.5065 15.8997 92.258 15.9791C92.0166 16.0512 91.7433 16.1197 91.438 16.1846C91.1327 16.2423 90.8274 16.2964 90.5221 16.3469C90.2168 16.3902 89.9399 16.4299 89.6914 16.4659C89.1589 16.5453 88.6938 16.6715 88.2962 16.8446C87.8986 17.0177 87.5898 17.2521 87.3697 17.5478C87.1496 17.8363 87.0395 18.1969 87.0395 18.6296C87.0395 19.2571 87.2632 19.7367 87.7105 20.0685C88.1649 20.3931 88.74 20.5554 89.4358 20.5554Z" fill="#80D504"/>
<path d="M105.405 1.26578V23.4223H100.869V1.26578H105.405Z" fill="#80D504"/>
</svg>
