<svg width="462" height="330" viewBox="0 0 462 330" fill="none" xmlns="http://www.w3.org/2000/svg">
<path d="M361.08 305.496C362.99 304.447 364.674 303.032 366.036 301.332C367.399 299.632 368.413 297.68 369.022 295.588C369.63 293.496 369.82 291.304 369.581 289.139C369.343 286.973 368.68 284.876 367.63 282.966L337.32 227.786L313.32 184.136C312.271 182.227 310.856 180.543 309.156 179.18C307.456 177.817 305.504 176.803 303.412 176.195C301.32 175.586 299.128 175.396 296.963 175.635C294.797 175.874 292.7 176.537 290.79 177.586C288.88 178.634 287.195 180.049 285.831 181.749C284.468 183.448 283.452 185.4 282.843 187.492C282.234 189.584 282.043 191.776 282.281 193.942C282.519 196.108 283.181 198.206 284.23 200.116L338.56 298.946C340.679 302.8 344.242 305.655 348.464 306.883C352.687 308.111 357.225 307.612 361.08 305.496Z" fill="#57CC02"/>
<path d="M316.011 136.986C315.99 138.061 315.856 139.13 315.611 140.176C315.866 141.626 316 143.094 316.011 144.566L311.411 179.356L310.951 182.876L304.351 232.966L303.601 238.646L302.561 246.816L298.441 277.966L292.441 323.736H180.561L170.701 250.046L169.901 244.046L167.441 225.686L161.901 184.466L161.701 182.946L161.181 179.086L156.561 144.566C156.571 143.094 156.705 141.626 156.961 140.176C156.716 139.13 156.581 138.061 156.561 136.986V136.686C156.561 136.316 156.561 135.966 156.561 135.606V134.606C156.919 123.347 159.688 112.295 164.681 102.196C165.571 100.356 166.551 98.5462 167.591 96.7962C175.948 82.607 188.495 71.3544 203.506 64.5852C218.518 57.8159 235.258 55.8622 251.425 58.9926C267.593 62.123 282.393 70.1838 293.794 82.0672C305.194 93.9505 312.634 109.073 315.091 125.356C315.558 128.41 315.841 131.489 315.941 134.576V135.696C315.932 135.739 315.932 135.783 315.941 135.826C315.941 136.086 315.941 136.366 315.941 136.646L316.011 136.986Z" fill="#58CC02"/>
<path d="M288.411 144.813V161.983C288.405 168.217 285.927 174.195 281.519 178.605C277.112 183.014 271.135 185.495 264.901 185.503C261.227 185.511 257.605 184.648 254.331 182.983C250.44 181.026 247.17 178.026 244.887 174.317C242.603 170.608 241.396 166.338 241.401 161.983V144.813C241.309 141.669 241.849 138.539 242.989 135.608C244.128 132.676 245.845 130.003 248.036 127.747C250.227 125.491 252.849 123.698 255.746 122.473C258.642 121.248 261.756 120.617 264.901 120.617C268.046 120.617 271.159 121.248 274.056 122.473C276.952 123.698 279.574 125.491 281.765 127.747C283.957 130.003 285.673 132.676 286.813 135.608C287.952 138.539 288.492 141.669 288.401 144.813H288.411Z" fill="white"/>
<path d="M274.32 168.355V179.225C274.32 180.894 273.915 182.538 273.14 184.015C270.506 185.006 267.715 185.514 264.9 185.515C261.227 185.524 257.604 184.66 254.33 182.995C253.859 181.795 253.618 180.516 253.62 179.225V168.355C253.618 166.736 253.998 165.14 254.727 163.694C255.457 162.249 256.517 160.996 257.82 160.035C259.599 158.72 261.758 158.018 263.97 158.035C266.71 158.035 269.338 159.122 271.278 161.056C273.218 162.991 274.312 165.616 274.32 168.355Z" fill="#4C4B4C"/>
<path d="M219.841 115.616C190.561 115.616 163.261 105.356 139.561 85.0963L151.191 71.4462C179.771 95.7962 212.941 103.286 249.771 93.7162C267.117 89.125 283.509 81.4861 298.181 71.1562L309.041 85.3562C292.67 97.0572 274.318 105.7 254.871 110.866C243.448 113.958 231.673 115.554 219.841 115.616Z" fill="#B2320F"/>
<path d="M349.98 315.566C361.346 315.566 370.56 306.352 370.56 294.986C370.56 283.62 361.346 274.406 349.98 274.406C338.614 274.406 329.4 283.62 329.4 294.986C329.4 306.352 338.614 315.566 349.98 315.566Z" fill="#57CC02"/>
<path d="M122.089 307.697C118.106 305.846 115.019 302.489 113.508 298.364C111.997 294.239 112.184 289.683 114.029 285.697L142.719 223.857L161.489 183.357C162.412 181.381 163.716 179.607 165.324 178.136C166.933 176.665 168.817 175.525 170.866 174.782C172.916 174.039 175.092 173.707 177.27 173.806C179.448 173.905 181.585 174.432 183.559 175.357C187.533 177.219 190.606 180.58 192.105 184.704C193.605 188.827 193.409 193.377 191.559 197.357L144.129 299.637C142.274 303.627 138.911 306.718 134.778 308.229C130.645 309.74 126.081 309.549 122.089 307.697Z" fill="#57CC02"/>
<path d="M132.45 317.035C143.816 317.035 153.03 307.821 153.03 296.455C153.03 285.089 143.816 275.875 132.45 275.875C121.084 275.875 111.87 285.089 111.87 296.455C111.87 307.821 121.084 317.035 132.45 317.035Z" fill="#57CC02"/>
<path d="M124.82 111.405C124.845 81.8334 136.617 53.483 157.545 32.5905C178.473 11.698 206.844 -0.025155 236.415 4.05292e-05C265.987 0.0252361 294.337 11.7967 315.23 32.7248C336.122 53.6529 347.845 82.0234 347.82 111.595C347.804 111.647 347.804 111.703 347.82 111.755C347.82 112.125 347.82 112.525 347.82 112.895V113.355C347.705 119.092 345.345 124.555 341.247 128.571C337.148 132.587 331.638 134.836 325.9 134.835H316.03C309.174 119.413 297.992 106.31 283.84 97.1145C269.688 87.9186 253.173 83.0241 236.295 83.0241C219.418 83.0241 202.903 87.9186 188.75 97.1145C174.598 106.31 163.417 119.413 156.56 134.835H146.69C140.953 134.836 135.444 132.587 131.348 128.571C127.251 124.554 124.893 119.091 124.78 113.355V112.925C124.78 112.355 124.8 111.905 124.82 111.405Z" fill="#CC471C"/>
<path d="M230.441 144.813V161.983C230.441 166.346 229.224 170.623 226.928 174.332C224.631 178.042 221.346 181.038 217.441 182.983C214.174 184.648 210.557 185.512 206.891 185.503C203.803 185.503 200.745 184.895 197.893 183.712C195.041 182.53 192.449 180.797 190.267 178.613C188.084 176.429 186.354 173.836 185.174 170.982C183.994 168.129 183.388 165.071 183.391 161.983V144.813C183.383 139.595 185.118 134.523 188.321 130.403C190.487 127.623 193.243 125.359 196.391 123.773C199.972 121.985 203.95 121.14 207.949 121.321C211.948 121.501 215.834 122.7 219.24 124.803C222.645 126.907 225.457 129.845 227.409 133.34C229.36 136.835 230.387 140.77 230.391 144.773L230.441 144.813Z" fill="white"/>
<path d="M218.2 168.358V179.228C218.204 180.519 217.959 181.799 217.48 182.998C214.213 184.663 210.597 185.526 206.93 185.518C204.109 185.517 201.311 185.009 198.67 184.018C197.898 182.539 197.497 180.896 197.5 179.228V168.358C197.5 166.999 197.768 165.653 198.288 164.397C198.808 163.141 199.57 162 200.531 161.039C201.493 160.078 202.634 159.316 203.889 158.796C205.145 158.276 206.491 158.008 207.85 158.008C209.209 158.008 210.555 158.276 211.811 158.796C213.066 159.316 214.207 160.078 215.169 161.039C216.13 162 216.892 163.141 217.412 164.397C217.932 165.653 218.2 166.999 218.2 168.358Z" fill="#4C4B4C"/>
<path d="M239.249 197.784C248.809 197.784 256.559 190.034 256.559 180.474C256.559 170.914 248.809 163.164 239.249 163.164C229.689 163.164 221.939 170.914 221.939 180.474C221.939 190.034 229.689 197.784 239.249 197.784Z" fill="#58CC02"/>
<path opacity="0.21" d="M458.98 325H2.13C0.953631 325 0 325.954 0 327.13C0 328.306 0.953631 329.26 2.13 329.26H458.98C460.156 329.26 461.11 328.306 461.11 327.13C461.11 325.954 460.156 325 458.98 325Z" fill="#D8D8D8"/>
<path d="M355.7 192.227H123.7C123.041 192.227 122.388 192.364 121.785 192.63C121.181 192.896 120.639 193.284 120.194 193.77C119.748 194.256 119.408 194.829 119.196 195.454C118.984 196.078 118.903 196.74 118.96 197.397L129.9 325.067H349.56L360.44 197.357C360.491 196.703 360.406 196.045 360.191 195.426C359.976 194.806 359.636 194.238 359.191 193.756C358.746 193.275 358.206 192.89 357.605 192.627C357.004 192.364 356.356 192.227 355.7 192.227Z" fill="#E1E1E1" stroke="#D9D9D9" stroke-width="0.75" stroke-miterlimit="10"/>
<path d="M251.07 29.5469H219.02V34.9569H251.07V29.5469Z" fill="#671100"/>
<path d="M230.13 57.4331H223.18L224.88 34.9531H231.84L230.13 57.4331Z" fill="#671100"/>
<path d="M245.82 50.6731V34.9531H238.82V50.8231C238.819 51.3418 238.879 51.8588 239 52.3631C239.358 53.8958 240.221 55.2632 241.451 56.2448C242.682 57.2264 244.207 57.7648 245.78 57.7731H250.56V52.3531H247.56C247.335 52.3598 247.111 52.3213 246.901 52.24C246.69 52.1587 246.499 52.0362 246.336 51.8797C246.174 51.7231 246.045 51.5357 245.957 51.3285C245.868 51.1213 245.822 50.8985 245.82 50.6731Z" fill="#671100"/>
<path fill-rule="evenodd" clip-rule="evenodd" d="M253.421 268.555C253.068 270.364 252.287 272.062 251.142 273.507C249.997 274.951 248.522 276.099 246.841 276.855C245.99 277.277 245.099 277.612 244.181 277.855L243.521 278.005C243.471 277.735 243.441 277.405 243.401 277.005C243.405 276.972 243.405 276.938 243.401 276.905C243.401 276.555 243.351 276.185 243.331 275.795C243.331 275.485 243.331 275.175 243.331 274.865V274.775C243.331 274.355 243.331 273.945 243.331 273.565C243.331 272.565 243.441 271.795 243.631 271.735C243.631 271.565 244.411 271.735 245.391 271.735H245.531C245.768 271.726 246.006 271.703 246.241 271.665H246.351H246.401C246.794 271.593 247.182 271.493 247.561 271.365C248.127 271.184 248.654 270.896 249.111 270.515C249.26 270.388 249.397 270.247 249.521 270.095C249.827 269.721 250.108 269.327 250.361 268.915C250.533 268.599 250.668 268.263 250.761 267.915C250.821 267.685 250.881 267.435 250.931 267.185C251.028 266.694 251.079 266.195 251.081 265.695C251.096 265.462 251.096 265.228 251.081 264.995C251.052 264.728 250.971 264.47 250.841 264.235C250.663 263.891 250.376 263.616 250.024 263.455C249.673 263.294 249.277 263.255 248.901 263.345C248.769 263.38 248.647 263.442 248.54 263.526C248.434 263.61 248.345 263.715 248.281 263.835C248.081 264.193 247.943 264.582 247.871 264.985C247.781 265.375 247.721 265.775 247.661 266.125C247.629 266.317 247.585 266.508 247.531 266.695C247.45 267.079 247.258 267.43 246.979 267.706C246.699 267.982 246.345 268.169 245.961 268.245C245.771 268.245 244.011 268.245 243.961 268.245C243.961 267.865 244.051 267.295 244.081 266.605V266.265C244.081 266.105 244.081 265.945 244.081 265.775C244.081 265.225 244.081 264.635 244.021 264.045C244.011 263.851 243.991 263.657 243.961 263.465C243.966 263.368 243.966 263.271 243.961 263.175C243.961 262.935 243.891 262.695 243.841 262.475L243.781 262.245C243.724 262.018 243.654 261.794 243.571 261.575C243.571 261.575 243.521 261.465 243.491 261.415C243.163 260.715 242.647 260.119 242.001 259.695L241.871 259.615C241.422 259.343 240.914 259.185 240.391 259.155H240.171C239.751 259.15 239.333 259.207 238.931 259.325L238.511 259.475L238.351 259.555C237.949 259.778 237.607 260.094 237.351 260.475C237.271 260.575 237.201 260.682 237.141 260.795C237.058 260.949 236.988 261.11 236.931 261.275C236.931 261.385 236.841 261.495 236.801 261.625C236.618 262.154 236.487 262.7 236.411 263.255V263.495C236.411 263.705 236.411 263.925 236.361 264.145C236.361 264.425 236.361 264.725 236.311 265.025C236.261 265.325 236.311 265.925 236.311 266.415C236.49 267.861 236.573 269.318 236.561 270.775C236.471 271.335 235.261 270.995 234.991 270.775C234.646 269.407 234.031 268.121 233.181 266.995C233.024 266.787 232.826 266.615 232.598 266.489C232.371 266.363 232.12 266.287 231.861 266.265C231.625 266.282 231.397 266.358 231.198 266.485C230.999 266.613 230.835 266.788 230.721 266.995C230.637 267.125 230.573 267.266 230.531 267.415C230.526 267.501 230.526 267.588 230.531 267.675C230.52 267.871 230.52 268.068 230.531 268.265V268.465C230.531 268.755 230.531 269.045 230.581 269.345C230.601 269.644 230.659 269.939 230.751 270.225C230.773 270.3 230.8 270.373 230.831 270.445C230.97 270.835 231.162 271.206 231.401 271.545C231.546 271.76 231.706 271.963 231.881 272.155C232.188 272.612 232.613 272.978 233.111 273.215L233.281 273.315L233.581 273.465H233.681C234.004 273.608 234.338 273.725 234.681 273.815L235.311 273.965C235.831 274.075 236.311 274.145 236.891 274.225C236.941 274.225 236.981 274.455 237.021 274.805C237.021 274.865 237.021 274.945 237.021 275.015C237.026 275.061 237.026 275.108 237.021 275.155C237.071 275.685 237.111 276.365 237.141 276.985V277.065C237.141 277.155 237.141 277.235 237.141 277.315C237.141 277.545 237.141 277.755 237.141 277.935L236.391 277.735C235.006 277.312 233.697 276.674 232.511 275.845C231.231 275.032 230.132 273.966 229.28 272.713C228.429 271.459 227.844 270.044 227.561 268.555C227.441 267.835 227.401 267.104 227.441 266.375C227.441 266.115 227.441 265.855 227.521 265.595C227.568 265.258 227.635 264.924 227.721 264.595C227.791 264.293 227.881 263.995 227.991 263.705C228.553 262.139 229.463 260.72 230.651 259.555C231.926 258.297 233.448 257.317 235.121 256.675L235.581 256.515L236.431 256.255C236.999 256.092 237.576 255.965 238.161 255.875C238.481 255.825 238.801 255.785 239.161 255.765C239.521 255.745 239.661 255.765 239.921 255.715H241.061C242.138 255.745 243.208 255.899 244.251 256.175L244.641 256.285L244.821 256.335C245.46 256.531 246.085 256.772 246.691 257.055C248.02 257.67 249.231 258.513 250.271 259.545C250.747 260.023 251.186 260.538 251.581 261.085C251.917 261.564 252.214 262.069 252.471 262.595C252.541 262.735 252.611 262.875 252.671 263.015C252.868 263.469 253.032 263.937 253.161 264.415C253.211 264.585 253.251 264.755 253.291 264.935C253.558 266.123 253.602 267.351 253.421 268.555Z" fill="#B5B5B5"/>
</svg>
